<mxfile host="drawio-plugin" modified="2025-03-13T05:16:21.929Z" agent="Mozilla/5.0 (Windows NT 10.0; Win64; x64) AppleWebKit/537.36 (KHTML, like Gecko) Chrome/122.0.0.0 Safari/537.36" etag="5Op46z-fDc0vuKj_9neN" version="22.1.22" type="embed">
  <diagram id="VlhHBZpKRhE8tKz5r5HN" name="Page-1">
    <mxGraphModel dx="1778" dy="1572" grid="1" gridSize="10" guides="1" tooltips="1" connect="1" arrows="1" fold="1" page="1" pageScale="1" pageWidth="1920" pageHeight="1920" math="0" shadow="0">
      <root>
        <mxCell id="0" />
        <mxCell id="1" parent="0" />
        <mxCell id="2" value="DisasterVictim" style="swimlane;fontStyle=0;align=center;verticalAlign=top;childLayout=stackLayout;horizontal=1;startSize=26;horizontalStack=0;resizeParent=1;resizeLast=0;collapsible=1;marginBottom=0;rounded=0;shadow=0;strokeWidth=1;" parent="1" vertex="1">
          <mxGeometry x="70" y="190" width="410" height="730" as="geometry">
            <mxRectangle x="550" y="140" width="160" height="26" as="alternateBounds" />
          </mxGeometry>
        </mxCell>
        <mxCell id="4" value="- String dateOfBirth&#xa;- String VICTIM_ID&#xa;- FamilyGroup family&#xa;&#xa;- MedicalRecord[] medicalRecords&#xa;- Supply[] personalBelongings&#xa;&#xa;- String ENTRY_DATE&#xa;- String comments" style="text;align=left;verticalAlign=top;spacingLeft=4;spacingRight=4;overflow=hidden;rotatable=0;points=[[0,0.5],[1,0.5]];portConstraint=eastwest;rounded=0;shadow=0;html=0;" parent="2" vertex="1">
          <mxGeometry y="26" width="410" height="124" as="geometry" />
        </mxCell>
        <mxCell id="5" value="" style="line;html=1;strokeWidth=1;align=left;verticalAlign=middle;spacingTop=-1;spacingLeft=3;spacingRight=3;rotatable=0;labelPosition=right;points=[];portConstraint=eastwest;" parent="2" vertex="1">
          <mxGeometry y="150" width="410" height="12" as="geometry" />
        </mxCell>
        <mxCell id="6" value="+DisasterVictim(String firstName, String ENTRY_DATE)&#xa;+DisasterVictim(String firstName, String ENTRY_DATE, String dateOfBirth)&#xa;+String getFirstName()&#xa;+void setFirstName(String firstName)&#xa;+String getLastName()&#xa;+void setLastName(String lastName)&#xa;+String getGender()&#xa;+void setGender(String gender)&#xa;+String getEntryDate()&#xa;+String getDateOfBirth()&#xa;+void setDateOfBirth(String dateOfBirth)&#xa;+String getVictimID()&#xa;+String getComments()&#xa;+void setComments(String comments)&#xa;+FamilyGroup getFamily()&#xa;+ArrayList&lt;Supply&gt; getSupplies()&#xa;&#xa;&#xa;&#xa;&#xa;+MedicalRecord[] getMedicalRecords()&#xa;+Supply[] getPersonalBelongings()&#xa;+void setFamilyConnections(FamilyRelation[] connections)&#xa;+void setMedicalRecords(MedicalRecord[] records)&#xa;+void addMedicalRecord(MedicalRecord record)&#xa;&#xa;" style="text;align=left;verticalAlign=top;spacingLeft=4;spacingRight=4;overflow=hidden;rotatable=0;points=[[0,0.5],[1,0.5]];portConstraint=eastwest;rounded=0;shadow=1;html=0;strokeColor=#000000;" parent="2" vertex="1">
          <mxGeometry y="162" width="410" height="524" as="geometry" />
        </mxCell>
        <mxCell id="14" value="LocationInfo" style="swimlane;fontStyle=0;align=center;verticalAlign=top;childLayout=stackLayout;horizontal=1;startSize=26;horizontalStack=0;resizeParent=1;resizeLast=0;collapsible=1;marginBottom=0;rounded=0;shadow=0;strokeWidth=1;" parent="1" vertex="1">
          <mxGeometry x="100" y="1030" width="280" height="310" as="geometry">
            <mxRectangle x="550" y="140" width="160" height="26" as="alternateBounds" />
          </mxGeometry>
        </mxCell>
        <mxCell id="15" value="- String name&#xa;- String address&#xa;- List&lt;DisasterVictim&gt; occupants&#xa;- List&lt;Supply&gt; supplies&#xa;" style="text;align=left;verticalAlign=top;spacingLeft=4;spacingRight=4;overflow=hidden;rotatable=0;points=[[0,0.5],[1,0.5]];portConstraint=eastwest;rounded=0;shadow=0;html=0;" parent="14" vertex="1">
          <mxGeometry y="26" width="280" height="64" as="geometry" />
        </mxCell>
        <mxCell id="16" value="" style="line;html=1;strokeWidth=1;align=left;verticalAlign=middle;spacingTop=-1;spacingLeft=3;spacingRight=3;rotatable=0;labelPosition=right;points=[];portConstraint=eastwest;" parent="14" vertex="1">
          <mxGeometry y="90" width="280" height="12" as="geometry" />
        </mxCell>
        <mxCell id="17" value="+Location(String name, String address)&#xa;+String getName()&#xa;+void setName(String name)&#xa;+String getAddress()&#xa;+void setAddress(String address)&#xa;+DisasterVictim[] getOccupants()&#xa;+void setOccupants(DisasterVictim[] occupants)&#xa;+Supply[] getSupplies()&#xa;+void setSupplies(Supply[] supplies)&#xa;+void addOccupant(DisasterVictim occupant)&#xa;+void removeOccupant(DisasterVictim occupant)&#xa;+void addSupply(Supply supply)&#xa;+void addSupply(Supply supply)&#xa;+void removeSupply(Supply supply" style="text;align=left;verticalAlign=top;spacingLeft=4;spacingRight=4;overflow=hidden;rotatable=0;points=[[0,0.5],[1,0.5]];portConstraint=eastwest;rounded=0;shadow=0;html=0;" parent="14" vertex="1">
          <mxGeometry y="102" width="280" height="208" as="geometry" />
        </mxCell>
        <mxCell id="18" value="« final »&#xa;Utilty" style="swimlane;fontStyle=0;align=center;verticalAlign=top;childLayout=stackLayout;horizontal=1;startSize=40;horizontalStack=0;resizeParent=1;resizeLast=0;collapsible=1;marginBottom=0;rounded=0;shadow=0;strokeWidth=1;" parent="1" vertex="1">
          <mxGeometry x="510" y="1310" width="270" height="136" as="geometry">
            <mxRectangle x="660" y="1060" width="160" height="26" as="alternateBounds" />
          </mxGeometry>
        </mxCell>
        <mxCell id="20" value="" style="line;html=1;strokeWidth=1;align=left;verticalAlign=middle;spacingTop=-1;spacingLeft=3;spacingRight=3;rotatable=0;labelPosition=right;points=[];portConstraint=eastwest;" parent="18" vertex="1">
          <mxGeometry y="40" width="270" height="12" as="geometry" />
        </mxCell>
        <mxCell id="95" value="-Utility()" style="text;align=left;verticalAlign=top;spacingLeft=4;spacingRight=4;overflow=hidden;rotatable=0;points=[[0,0.5],[1,0.5]];portConstraint=eastwest;rounded=0;shadow=0;html=0;" parent="18" vertex="1">
          <mxGeometry y="52" width="270" height="18" as="geometry" />
        </mxCell>
        <mxCell id="21" value="+boolean isValidDateFormat(String date)&#xa;+int convertDateStringToInt(String date)&#xa;+String generateID()&#xa;&#xa;" style="text;align=left;verticalAlign=top;spacingLeft=4;spacingRight=4;overflow=hidden;rotatable=0;points=[[0,0.5],[1,0.5]];portConstraint=eastwest;rounded=0;shadow=0;html=0;fontStyle=4" parent="18" vertex="1">
          <mxGeometry y="70" width="270" height="46" as="geometry" />
        </mxCell>
        <mxCell id="26" value="ExternalInquirer" style="swimlane;fontStyle=0;align=center;verticalAlign=top;childLayout=stackLayout;horizontal=1;startSize=26;horizontalStack=0;resizeParent=1;resizeLast=0;collapsible=1;marginBottom=0;rounded=0;shadow=0;strokeWidth=1;" parent="1" vertex="1">
          <mxGeometry x="1200" y="300" width="490" height="240" as="geometry">
            <mxRectangle x="550" y="140" width="160" height="26" as="alternateBounds" />
          </mxGeometry>
        </mxCell>
        <mxCell id="27" value="-String phoneNumber&#xa;-String location" style="text;align=left;verticalAlign=top;spacingLeft=4;spacingRight=4;overflow=hidden;rotatable=0;points=[[0,0.5],[1,0.5]];portConstraint=eastwest;rounded=0;shadow=0;html=0;" parent="26" vertex="1">
          <mxGeometry y="26" width="490" height="44" as="geometry" />
        </mxCell>
        <mxCell id="28" value="" style="line;html=1;strokeWidth=1;align=left;verticalAlign=middle;spacingTop=-1;spacingLeft=3;spacingRight=3;rotatable=0;labelPosition=right;points=[];portConstraint=eastwest;" parent="26" vertex="1">
          <mxGeometry y="70" width="490" height="12" as="geometry" />
        </mxCell>
        <mxCell id="29" value="+ExternalInquirer(String firstName, String lastName, String phoneNumber, String location)&#xa;+String getFirstName()&#xa;+void setFirstName(String firstName)&#xa;+String getLastName()&#xa;+void setLastName(String lastName)&#xa;+String getPhoneNumber()&#xa;+void setPhoneNumber(String phoneNumber)&#xa;+String getLocation()&#xa;+void setLocation(String location)" style="text;align=left;verticalAlign=top;spacingLeft=4;spacingRight=4;overflow=hidden;rotatable=0;points=[[0,0.5],[1,0.5]];portConstraint=eastwest;rounded=0;shadow=0;html=0;" parent="26" vertex="1">
          <mxGeometry y="82" width="490" height="138" as="geometry" />
        </mxCell>
        <mxCell id="30" value="Supply" style="swimlane;fontStyle=0;align=center;verticalAlign=top;childLayout=stackLayout;horizontal=1;startSize=26;horizontalStack=0;resizeParent=1;resizeLast=0;collapsible=1;marginBottom=0;rounded=0;shadow=0;strokeWidth=1;" parent="1" vertex="1">
          <mxGeometry x="1170" y="1430" width="270" height="230" as="geometry">
            <mxRectangle x="1170" y="1430" width="160" height="26" as="alternateBounds" />
          </mxGeometry>
        </mxCell>
        <mxCell id="31" value="-String SUPPLY_ID&#xa;-boolean exists&#xa;-boolean allocated&#xa;" style="text;align=left;verticalAlign=top;spacingLeft=4;spacingRight=4;overflow=hidden;rotatable=0;points=[[0,0.5],[1,0.5]];portConstraint=eastwest;rounded=0;shadow=0;html=0;" parent="30" vertex="1">
          <mxGeometry y="26" width="270" height="54" as="geometry" />
        </mxCell>
        <mxCell id="32" value="" style="line;html=1;strokeWidth=1;align=left;verticalAlign=middle;spacingTop=-1;spacingLeft=3;spacingRight=3;rotatable=0;labelPosition=right;points=[];portConstraint=eastwest;" parent="30" vertex="1">
          <mxGeometry y="80" width="270" height="12" as="geometry" />
        </mxCell>
        <mxCell id="33" value="+Supply()&#xa;+void allocate(DisasterVictim victim)&#xa;+void allocate(Location location)&#xa;+String getSupplyID()&#xa;+String getType()&#xa;+boolean getExists()&#xa;+void setExists()&#xa;+boolean getAllocated()&#xa;+void setAllocated()" style="text;align=left;verticalAlign=top;spacingLeft=4;spacingRight=4;overflow=hidden;rotatable=0;points=[[0,0.5],[1,0.5]];portConstraint=eastwest;rounded=0;shadow=0;html=0;" parent="30" vertex="1">
          <mxGeometry y="92" width="270" height="138" as="geometry" />
        </mxCell>
        <mxCell id="38" value="MedicalRecord" style="swimlane;fontStyle=0;align=center;verticalAlign=top;childLayout=stackLayout;horizontal=1;startSize=26;horizontalStack=0;resizeParent=1;resizeLast=0;collapsible=1;marginBottom=0;rounded=0;shadow=0;strokeWidth=1;" parent="1" vertex="1">
          <mxGeometry x="1100" y="652" width="460" height="220" as="geometry">
            <mxRectangle x="1100" y="652" width="160" height="26" as="alternateBounds" />
          </mxGeometry>
        </mxCell>
        <mxCell id="39" value="- Location location&#xa;- String treatmentDetails&#xa;- String dateOfTreatment" style="text;align=left;verticalAlign=top;spacingLeft=4;spacingRight=4;overflow=hidden;rotatable=0;points=[[0,0.5],[1,0.5]];portConstraint=eastwest;rounded=0;shadow=0;html=0;" parent="38" vertex="1">
          <mxGeometry y="26" width="460" height="54" as="geometry" />
        </mxCell>
        <mxCell id="40" value="" style="line;html=1;strokeWidth=1;align=left;verticalAlign=middle;spacingTop=-1;spacingLeft=3;spacingRight=3;rotatable=0;labelPosition=right;points=[];portConstraint=eastwest;" parent="38" vertex="1">
          <mxGeometry y="80" width="460" height="12" as="geometry" />
        </mxCell>
        <mxCell id="41" value="+MedicalRecord(Location location, String treatmentDetails, String dateOfTreatment)&#xa;+Location getLocation()&#xa;+void setLocation(Location location)&#xa;+String getTreatmentDetails()&#xa;+void setTreatmentDetails(String treatmentDetails)&#xa;+String getDateOfTreatment()&#xa;+void setDateOfTreatment(String dateOfTreatment)&#xa;-boolean isValidDateFormat(String date)" style="text;align=left;verticalAlign=top;spacingLeft=4;spacingRight=4;overflow=hidden;rotatable=0;points=[[0,0.5],[1,0.5]];portConstraint=eastwest;rounded=0;shadow=0;html=0;" parent="38" vertex="1">
          <mxGeometry y="92" width="460" height="118" as="geometry" />
        </mxCell>
        <mxCell id="43" value="Person" style="swimlane;fontStyle=0;align=center;verticalAlign=top;childLayout=stackLayout;horizontal=1;startSize=26;horizontalStack=0;resizeParent=1;resizeLast=0;collapsible=1;marginBottom=0;rounded=0;shadow=0;strokeWidth=1;" parent="1" vertex="1">
          <mxGeometry x="680" y="50" width="320" height="220" as="geometry">
            <mxRectangle x="550" y="140" width="160" height="26" as="alternateBounds" />
          </mxGeometry>
        </mxCell>
        <mxCell id="44" value="- String firstName&#xa;- String lastName&#xa;- String gender" style="text;align=left;verticalAlign=top;spacingLeft=4;spacingRight=4;overflow=hidden;rotatable=0;points=[[0,0.5],[1,0.5]];portConstraint=eastwest;rounded=0;shadow=0;html=0;" parent="43" vertex="1">
          <mxGeometry y="26" width="320" height="54" as="geometry" />
        </mxCell>
        <mxCell id="45" value="" style="line;html=1;strokeWidth=1;align=left;verticalAlign=middle;spacingTop=-1;spacingLeft=3;spacingRight=3;rotatable=0;labelPosition=right;points=[];portConstraint=eastwest;" parent="43" vertex="1">
          <mxGeometry y="80" width="320" height="12" as="geometry" />
        </mxCell>
        <mxCell id="46" value="+Person(String firstName)&#xa;+Person(String firstName, String lastName, String gender)&#xa;+String getFirstName()&#xa;+void setFirstName(String firstName)&#xa;+String getLastName()&#xa;+void setLastName(String lastName)&#xa;+String getGender()&#xa;+void setGender(String gender)" style="text;align=left;verticalAlign=top;spacingLeft=4;spacingRight=4;overflow=hidden;rotatable=0;points=[[0,0.5],[1,0.5]];portConstraint=eastwest;rounded=0;shadow=0;html=0;" parent="43" vertex="1">
          <mxGeometry y="92" width="320" height="128" as="geometry" />
        </mxCell>
        <mxCell id="47" value="FamilyGroup" style="swimlane;fontStyle=0;align=center;verticalAlign=top;childLayout=stackLayout;horizontal=1;startSize=26;horizontalStack=0;resizeParent=1;resizeLast=0;collapsible=1;marginBottom=0;rounded=0;shadow=0;strokeWidth=1;" parent="1" vertex="1">
          <mxGeometry x="520" y="570" width="520" height="190" as="geometry">
            <mxRectangle x="520" y="570" width="160" height="26" as="alternateBounds" />
          </mxGeometry>
        </mxCell>
        <mxCell id="48" value="-ArrayList&lt;DisasterVictim&gt; familyMembers" style="text;align=left;verticalAlign=top;spacingLeft=4;spacingRight=4;overflow=hidden;rotatable=0;points=[[0,0.5],[1,0.5]];portConstraint=eastwest;rounded=0;shadow=0;html=0;" parent="47" vertex="1">
          <mxGeometry y="26" width="520" height="34" as="geometry" />
        </mxCell>
        <mxCell id="49" value="" style="line;html=1;strokeWidth=1;align=left;verticalAlign=middle;spacingTop=-1;spacingLeft=3;spacingRight=3;rotatable=0;labelPosition=right;points=[];portConstraint=eastwest;" parent="47" vertex="1">
          <mxGeometry y="60" width="520" height="12" as="geometry" />
        </mxCell>
        <mxCell id="50" value="+FamilyGroup(DisasterVictim victim)&#xa;+FamilyGroup(DisasterVictim victimOne, DisasterVictim victimTwo)&#xa;+FamilyGroup(DisasterVictim victimOne, DisasterVictim victimTwo, DisasterVictim victimThree)&#xa;+boolean isFamilyMember(DisasterVictim victim)&#xa;+void addFamilyMember(DisasterVictim victim)&#xa;+void removeFamilyMember(DisasterVictim victim)&#xa;+ArrayList&lt;DisasterVictim&gt; getFamilyMembers()&#xa;" style="text;align=left;verticalAlign=top;spacingLeft=4;spacingRight=4;overflow=hidden;rotatable=0;points=[[0,0.5],[1,0.5]];portConstraint=eastwest;rounded=0;shadow=0;html=0;" parent="47" vertex="1">
          <mxGeometry y="72" width="520" height="118" as="geometry" />
        </mxCell>
        <mxCell id="51" value="Inquiry" style="swimlane;fontStyle=0;align=center;verticalAlign=top;childLayout=stackLayout;horizontal=1;startSize=26;horizontalStack=0;resizeParent=1;resizeLast=0;collapsible=1;marginBottom=0;rounded=0;shadow=0;strokeWidth=1;" parent="1" vertex="1">
          <mxGeometry x="560" y="830" width="470" height="280" as="geometry">
            <mxRectangle x="550" y="140" width="160" height="26" as="alternateBounds" />
          </mxGeometry>
        </mxCell>
        <mxCell id="52" value="-Person INQUIRER&#xa;-DisasterVictim MISSING_PERSON&#xa;-String INQUIRY_INFO&#xa;-String INQUIRY_DATE&#xa;-Location LAST_KNOWN_LOCATION&#xa;-String status" style="text;align=left;verticalAlign=top;spacingLeft=4;spacingRight=4;overflow=hidden;rotatable=0;points=[[0,0.5],[1,0.5]];portConstraint=eastwest;rounded=0;shadow=0;html=0;" parent="51" vertex="1">
          <mxGeometry y="26" width="470" height="94" as="geometry" />
        </mxCell>
        <mxCell id="53" value="" style="line;html=1;strokeWidth=1;align=left;verticalAlign=middle;spacingTop=-1;spacingLeft=3;spacingRight=3;rotatable=0;labelPosition=right;points=[];portConstraint=eastwest;" parent="51" vertex="1">
          <mxGeometry y="120" width="470" height="12" as="geometry" />
        </mxCell>
        <mxCell id="54" value="+Inquiry(Person INQUIRER, DisasterVictim MISSING_PERSON, &#xa;String INQUIRY_INFO, String INQUIRY_DATE, Location LAST_KNOWN_LOCATION)&#xa;+Person getInquirer()&#xa;+DisasterVictim getMissingPerson()&#xa;+String getInquiryInfo()&#xa;+String getInquiryDate()&#xa;+Location getLastKnownLocation()&#xa;+String getStatus()&#xa;+void setStatus()&#xa;" style="text;align=left;verticalAlign=top;spacingLeft=4;spacingRight=4;overflow=hidden;rotatable=0;points=[[0,0.5],[1,0.5]];portConstraint=eastwest;rounded=0;shadow=0;html=0;" parent="51" vertex="1">
          <mxGeometry y="132" width="470" height="148" as="geometry" />
        </mxCell>
        <mxCell id="55" value="PersonalBelonging" style="swimlane;fontStyle=0;align=center;verticalAlign=top;childLayout=stackLayout;horizontal=1;startSize=26;horizontalStack=0;resizeParent=1;resizeLast=0;collapsible=1;marginBottom=0;rounded=0;shadow=0;strokeWidth=1;" parent="1" vertex="1">
          <mxGeometry x="720" y="1740" width="220" height="130" as="geometry">
            <mxRectangle x="550" y="140" width="160" height="26" as="alternateBounds" />
          </mxGeometry>
        </mxCell>
        <mxCell id="56" value="-String description" style="text;align=left;verticalAlign=top;spacingLeft=4;spacingRight=4;overflow=hidden;rotatable=0;points=[[0,0.5],[1,0.5]];portConstraint=eastwest;rounded=0;shadow=0;html=0;" parent="55" vertex="1">
          <mxGeometry y="26" width="220" height="24" as="geometry" />
        </mxCell>
        <mxCell id="57" value="" style="line;html=1;strokeWidth=1;align=left;verticalAlign=middle;spacingTop=-1;spacingLeft=3;spacingRight=3;rotatable=0;labelPosition=right;points=[];portConstraint=eastwest;" parent="55" vertex="1">
          <mxGeometry y="50" width="220" height="12" as="geometry" />
        </mxCell>
        <mxCell id="58" value="+PersonalBelonging(String description)&#xa;+String getSupplyID()&#xa;+String getDescription()&#xa;+void setDescription()" style="text;align=left;verticalAlign=top;spacingLeft=4;spacingRight=4;overflow=hidden;rotatable=0;points=[[0,0.5],[1,0.5]];portConstraint=eastwest;rounded=0;shadow=0;html=0;" parent="55" vertex="1">
          <mxGeometry y="62" width="220" height="58" as="geometry" />
        </mxCell>
        <mxCell id="72" value="Blanket" style="swimlane;fontStyle=0;align=center;verticalAlign=top;childLayout=stackLayout;horizontal=1;startSize=26;horizontalStack=0;resizeParent=1;resizeLast=0;collapsible=1;marginBottom=0;rounded=0;shadow=0;strokeWidth=1;" parent="1" vertex="1">
          <mxGeometry x="855" y="1610" width="130" height="80" as="geometry">
            <mxRectangle x="855" y="1610" width="160" height="26" as="alternateBounds" />
          </mxGeometry>
        </mxCell>
        <mxCell id="74" value="" style="line;html=1;strokeWidth=1;align=left;verticalAlign=middle;spacingTop=-1;spacingLeft=3;spacingRight=3;rotatable=0;labelPosition=right;points=[];portConstraint=eastwest;" parent="72" vertex="1">
          <mxGeometry y="26" width="130" height="10" as="geometry" />
        </mxCell>
        <mxCell id="75" value="+Blanket()" style="text;align=left;verticalAlign=top;spacingLeft=4;spacingRight=4;overflow=hidden;rotatable=0;points=[[0,0.5],[1,0.5]];portConstraint=eastwest;rounded=0;shadow=0;html=0;" parent="72" vertex="1">
          <mxGeometry y="36" width="130" height="24" as="geometry" />
        </mxCell>
        <mxCell id="76" value="Cot" style="swimlane;fontStyle=0;align=center;verticalAlign=top;childLayout=stackLayout;horizontal=1;startSize=26;horizontalStack=0;resizeParent=1;resizeLast=0;collapsible=1;marginBottom=0;rounded=0;shadow=0;strokeWidth=1;" parent="1" vertex="1">
          <mxGeometry x="1500" y="1490" width="200" height="180" as="geometry">
            <mxRectangle x="1560" y="1500" width="160" height="26" as="alternateBounds" />
          </mxGeometry>
        </mxCell>
        <mxCell id="77" value="-int room&#xa;-String gridLocation" style="text;align=left;verticalAlign=top;spacingLeft=4;spacingRight=4;overflow=hidden;rotatable=0;points=[[0,0.5],[1,0.5]];portConstraint=eastwest;rounded=0;shadow=0;html=0;" parent="76" vertex="1">
          <mxGeometry y="26" width="200" height="34" as="geometry" />
        </mxCell>
        <mxCell id="78" value="" style="line;html=1;strokeWidth=1;align=left;verticalAlign=middle;spacingTop=-1;spacingLeft=3;spacingRight=3;rotatable=0;labelPosition=right;points=[];portConstraint=eastwest;" parent="76" vertex="1">
          <mxGeometry y="60" width="200" height="12" as="geometry" />
        </mxCell>
        <mxCell id="79" value="+Cot(int room, String gridLocation)&#xa;+String getSupplyID()&#xa;+int getRoom()&#xa;+void setRoom()&#xa;+String getGridLocation()&#xa;+void getRoom()" style="text;align=left;verticalAlign=top;spacingLeft=4;spacingRight=4;overflow=hidden;rotatable=0;points=[[0,0.5],[1,0.5]];portConstraint=eastwest;rounded=0;shadow=0;html=0;" parent="76" vertex="1">
          <mxGeometry y="72" width="200" height="108" as="geometry" />
        </mxCell>
        <mxCell id="80" value="Water" style="swimlane;fontStyle=0;align=center;verticalAlign=top;childLayout=stackLayout;horizontal=1;startSize=26;horizontalStack=0;resizeParent=1;resizeLast=0;collapsible=1;marginBottom=0;rounded=0;shadow=0;strokeWidth=1;" parent="1" vertex="1">
          <mxGeometry x="1185" y="1680" width="310" height="180" as="geometry">
            <mxRectangle x="550" y="140" width="160" height="26" as="alternateBounds" />
          </mxGeometry>
        </mxCell>
        <mxCell id="81" value="-String ALLOCATION_DATE&#xa;-String expiryDate" style="text;align=left;verticalAlign=top;spacingLeft=4;spacingRight=4;overflow=hidden;rotatable=0;points=[[0,0.5],[1,0.5]];portConstraint=eastwest;rounded=0;shadow=0;html=0;" parent="80" vertex="1">
          <mxGeometry y="26" width="310" height="34" as="geometry" />
        </mxCell>
        <mxCell id="82" value="" style="line;html=1;strokeWidth=1;align=left;verticalAlign=middle;spacingTop=-1;spacingLeft=3;spacingRight=3;rotatable=0;labelPosition=right;points=[];portConstraint=eastwest;" parent="80" vertex="1">
          <mxGeometry y="60" width="310" height="12" as="geometry" />
        </mxCell>
        <mxCell id="83" value="+Water(String ALLOCATION_DATE, String expiryDate)&#xa;+String getSupplyID()&#xa;+boolean isUsed()&#xa;+String getAllocationDate()&#xa;+String getExpiryDate()&#xa;+void setExpiryDate(String expiryDate)&#xa;" style="text;align=left;verticalAlign=top;spacingLeft=4;spacingRight=4;overflow=hidden;rotatable=0;points=[[0,0.5],[1,0.5]];portConstraint=eastwest;rounded=0;shadow=0;html=0;" parent="80" vertex="1">
          <mxGeometry y="72" width="310" height="108" as="geometry" />
        </mxCell>
        <mxCell id="87" value="LocationManager" style="swimlane;fontStyle=0;align=center;verticalAlign=top;childLayout=stackLayout;horizontal=1;startSize=26;horizontalStack=0;resizeParent=1;resizeLast=0;collapsible=1;marginBottom=0;rounded=0;shadow=0;strokeWidth=1;" parent="1" vertex="1">
          <mxGeometry x="110" y="1400" width="280" height="310" as="geometry">
            <mxRectangle x="550" y="140" width="160" height="26" as="alternateBounds" />
          </mxGeometry>
        </mxCell>
        <mxCell id="88" value="- String name&#xa;- String address&#xa;- DisasterVictim[] occupants&#xa;- Supply[] supplies&#xa;" style="text;align=left;verticalAlign=top;spacingLeft=4;spacingRight=4;overflow=hidden;rotatable=0;points=[[0,0.5],[1,0.5]];portConstraint=eastwest;rounded=0;shadow=0;html=0;" parent="87" vertex="1">
          <mxGeometry y="26" width="280" height="64" as="geometry" />
        </mxCell>
        <mxCell id="89" value="" style="line;html=1;strokeWidth=1;align=left;verticalAlign=middle;spacingTop=-1;spacingLeft=3;spacingRight=3;rotatable=0;labelPosition=right;points=[];portConstraint=eastwest;" parent="87" vertex="1">
          <mxGeometry y="90" width="280" height="12" as="geometry" />
        </mxCell>
        <mxCell id="90" value="+Location(String name, String address)&#xa;+String getName()&#xa;+void setName(String name)&#xa;+String getAddress()&#xa;+void setAddress(String address)&#xa;+DisasterVictim[] getOccupants()&#xa;+void setOccupants(DisasterVictim[] occupants)&#xa;+Supply[] getSupplies()&#xa;+void setSupplies(Supply[] supplies)&#xa;+void addOccupant(DisasterVictim occupant)&#xa;+void removeOccupant(DisasterVictim occupant)&#xa;+void addSupply(Supply supply)&#xa;+void addSupply(Supply supply)&#xa;+void removeSupply(Supply supply" style="text;align=left;verticalAlign=top;spacingLeft=4;spacingRight=4;overflow=hidden;rotatable=0;points=[[0,0.5],[1,0.5]];portConstraint=eastwest;rounded=0;shadow=0;html=0;" parent="87" vertex="1">
          <mxGeometry y="102" width="280" height="208" as="geometry" />
        </mxCell>
        <mxCell id="91" value="Allocation" style="swimlane;fontStyle=0;align=center;verticalAlign=top;childLayout=stackLayout;horizontal=1;startSize=26;horizontalStack=0;resizeParent=1;resizeLast=0;collapsible=1;marginBottom=0;rounded=0;shadow=0;strokeWidth=1;" parent="1" vertex="1">
          <mxGeometry x="860" y="1300" width="220" height="220" as="geometry">
            <mxRectangle x="550" y="140" width="160" height="26" as="alternateBounds" />
          </mxGeometry>
        </mxCell>
        <mxCell id="92" value="-private DisasterVictim victim&#xa;-private Location location" style="text;align=left;verticalAlign=top;spacingLeft=4;spacingRight=4;overflow=hidden;rotatable=0;points=[[0,0.5],[1,0.5]];portConstraint=eastwest;rounded=0;shadow=0;html=0;" parent="91" vertex="1">
          <mxGeometry y="26" width="220" height="54" as="geometry" />
        </mxCell>
        <mxCell id="93" value="" style="line;html=1;strokeWidth=1;align=left;verticalAlign=middle;spacingTop=-1;spacingLeft=3;spacingRight=3;rotatable=0;labelPosition=right;points=[];portConstraint=eastwest;" parent="91" vertex="1">
          <mxGeometry y="80" width="220" height="12" as="geometry" />
        </mxCell>
        <mxCell id="94" value="+Allocation(DisasterVictim victim)&#xa;+Allocation(Location location)&#xa;+void deallocate(DisasterVictim victim)&#xa;+void deallocate(Location location)&#xa;+DisasterVictim getVictim()&#xa;+void setVictim()&#xa;+Location getLocation()&#xa;+void setLocation()&#xa;" style="text;align=left;verticalAlign=top;spacingLeft=4;spacingRight=4;overflow=hidden;rotatable=0;points=[[0,0.5],[1,0.5]];portConstraint=eastwest;rounded=0;shadow=0;html=0;" parent="91" vertex="1">
          <mxGeometry y="92" width="220" height="128" as="geometry" />
        </mxCell>
      </root>
    </mxGraphModel>
  </diagram>
</mxfile>
